<svg width="20" height="23" viewBox="0 0 20 23" fill="none" xmlns="http://www.w3.org/2000/svg">
<path d="M17.875 0.75H2.125C1.50625 0.75 1 1.19939 1 1.75481V21.2148C1 21.7702 1.36563 21.9116 1.82125 21.5228L9.54437 14.9486C9.72437 14.7971 10.0225 14.7971 10.2025 14.9436L18.1731 21.5379C18.6288 21.9166 19 21.7702 19 21.2148V1.75481C19 1.19939 18.4994 0.75 17.875 0.75ZM17.3125 18.7709L11.3444 13.8327C10.9281 13.4894 10.405 13.3177 9.87625 13.3177C9.33625 13.3177 8.80188 13.4944 8.38563 13.8479L2.6875 18.7002V2.26479H17.3125V18.7709Z" fill="black" stroke="black" stroke-width="0.7"/>
</svg>
