<svg width="20" height="20" viewBox="0 0 20 20" fill="none" xmlns="http://www.w3.org/2000/svg">
<path fill-rule="evenodd" clip-rule="evenodd" d="M19.2959 18.5665L18.2351 14.6102C18.1743 14.3885 18.2047 14.1494 18.309 13.9407C19.2351 12.0842 19.5438 9.86696 18.9742 7.55402C18.2003 4.42374 15.757 1.91081 12.6354 1.08042C11.7833 0.85869 10.9442 0.75 10.1312 0.75C4.29665 0.75 -0.259655 6.22365 1.31418 12.3147C2.04458 15.1319 5.05314 18.0492 7.88344 18.7361C8.64862 18.923 9.40076 19.01 10.1312 19.01C11.7006 19.01 13.1701 18.6057 14.4614 17.9101C14.6049 17.8318 14.7657 17.7883 14.9222 17.7883C15.0005 17.7883 15.0787 17.797 15.157 17.8188L19.009 18.8491C19.0307 18.8535 19.0525 18.8578 19.0699 18.8578C19.2177 18.8578 19.3351 18.7187 19.2959 18.5665ZM17.0178 14.9363L17.6178 17.1753L15.4831 16.6058C15.3005 16.5579 15.1135 16.5319 14.9222 16.5319C14.557 16.5319 14.1875 16.6275 13.8571 16.8058C12.6963 17.4318 11.4441 17.7492 10.1312 17.7492C9.48336 17.7492 8.82687 17.6666 8.17907 17.5101C5.78354 16.9275 3.14453 14.3537 2.53586 11.9973C1.90111 9.53654 2.40109 7.01057 3.90536 5.06719C5.40964 3.1238 7.6791 2.01081 10.1312 2.01081C10.8529 2.01081 11.5876 2.10646 12.3137 2.3021C14.9961 3.01511 17.0786 5.14544 17.7525 7.85836C18.2264 9.77131 18.0308 11.6799 17.183 13.3798C16.9395 13.8668 16.8787 14.4189 17.0178 14.9363Z" fill="black" stroke="black" stroke-width="0.7"/>
</svg>
