<svg width="23" height="20" viewBox="0 0 23 20" fill="none" xmlns="http://www.w3.org/2000/svg">
<path d="M11.4995 19.0109C11.1062 19.0109 10.7307 18.8862 10.4133 18.6501C8.2588 17.0512 3.10938 13.0739 1.81755 10.6643C0.127895 7.51543 1.14258 3.47131 4.07489 1.64968C5.02253 1.06177 6.09533 0.75 7.18601 0.75C8.81755 0.75 10.3508 1.41808 11.4995 2.60726C12.6483 1.41808 14.1815 0.75 15.8131 0.75C16.9038 0.75 17.9766 1.06177 18.9242 1.64968C21.8565 3.47131 22.8712 7.51543 21.186 10.6643C19.8942 13.0739 14.7448 17.0512 12.5902 18.6501C12.2684 18.8862 11.8929 19.0109 11.4995 19.0109ZM7.18601 2.08616C6.34565 2.08616 5.5187 2.32667 4.78562 2.78096C2.43888 4.24183 1.63428 7.49316 2.99763 10.0319C4.19558 12.2677 9.58639 16.3742 11.209 17.5767C11.3789 17.7014 11.6158 17.7014 11.7856 17.5767C13.4082 16.3697 18.799 12.2633 19.997 10.0319C21.3603 7.49316 20.5557 4.23738 18.209 2.78096C17.4804 2.32667 16.6534 2.08616 15.8131 2.08616C14.3425 2.08616 12.9657 2.79878 12.0359 4.03696L11.4995 4.75848L10.9631 4.03696C10.0334 2.79878 8.6611 2.08616 7.18601 2.08616Z" fill="black" stroke="black" stroke-width="0.7"/>
</svg>
